<svg xmlns="http://www.w3.org/2000/svg" width="24" height="24" viewBox="0 0 24 24"><path fill="currentColor" fill-rule="evenodd" d="M.41 15.88c0-4.83.96-7.73 1.93-9.66 0-1.28.51-2.51 1.41-3.42a4.87 4.87 0 0 1 3.42-1.41A4.83 4.83 0 0 1 12 6.22a4.83 4.83 0 0 1 4.83-4.83c1.28 0 2.51.51 3.42 1.41.9.91 1.41 2.14 1.41 3.42.97 1.93 1.93 4.83 1.93 9.66 0 3.87-4.83 7.73-11.59 7.73S.41 19.75.41 15.88m13.52-9.66c0 .77.31 1.51.85 2.05.55.54 1.28.85 2.05.85s1.51-.31 2.05-.85.85-1.28.85-2.05-.31-1.51-.85-2.05-1.28-.85-2.05-.85-1.5.31-2.05.85c-.54.54-.85 1.28-.85 2.05m-9.66 0c0 .77.31 1.51.85 2.05s1.28.85 2.05.85 1.5-.31 2.05-.85c.54-.54.85-1.28.85-2.05s-.31-1.51-.85-2.05c-.55-.54-1.28-.85-2.05-.85s-1.51.31-2.05.85-.85 1.28-.85 2.05m5.51 7.73q0 .32.22.55.23.22.55.22t.55-.22q.22-.23.22-.55t-.22-.55q-.23-.22-.55-.22t-.55.22q-.22.23-.22.55m2.9 0q0 .32.22.55.23.22.55.22t.55-.22q.22-.23.22-.55T14 13.4q-.23-.22-.55-.22t-.55.22q-.22.23-.22.55"/><path fill="currentColor" fill-rule="evenodd" d="M7.65 8.06c-.75 0-1.35-.61-1.35-1.36s.6-1.35 1.35-1.35S9 5.95 9 6.7s-.6 1.36-1.35 1.36m8.7 0C15.6 8.06 15 7.45 15 6.7s.6-1.35 1.35-1.35 1.35.6 1.35 1.35-.6 1.36-1.35 1.36"/><path fill="currentColor" d="M7.2 17.2q4.8 6.2 9.6 0-4.8 3-9.6 0"/></svg>